<svg version="1.1" id="Layer_1" xmlns="http://www.w3.org/2000/svg" xmlns:xlink="http://www.w3.org/1999/xlink" x="0px" y="0px"
	 width="100%" viewBox="0 0 416 416" enable-background="new 0 0 416 416" xml:space="preserve">
<path fill="#000000" opacity="1.000000" stroke="none" 
	d="
M120.318542,397.194275 
	C115.823570,396.203491 111.572594,396.391998 107.675995,394.687805 
	C104.573921,393.331146 102.097130,391.433319 102.022873,387.794464 
	C101.947395,384.095764 104.579529,382.259918 107.540230,380.792694 
	C111.680695,378.740784 116.255676,378.799225 120.663116,378.043762 
	C127.256233,376.913696 129.546463,374.313690 129.753433,367.747864 
	C130.188828,353.935852 130.641785,340.124390 131.072525,326.312256 
	C131.541992,311.258331 138.426971,299.634186 150.103561,290.538635 
	C151.107941,289.756256 152.546417,289.345520 152.899414,287.377625 
	C147.991318,285.122467 142.539902,284.608948 137.321121,283.473297 
	C111.320503,277.815399 83.712654,254.253586 79.552765,221.640549 
	C77.755295,207.548569 79.197998,193.798248 81.495201,179.996307 
	C81.768326,178.355362 82.125732,176.728378 82.395706,175.086975 
	C82.444885,174.788010 82.259209,174.450394 82.111618,173.839554 
	C73.788536,171.006287 65.296974,168.173447 56.847046,165.221405 
	C49.744411,162.740021 42.837627,159.857193 37.195587,154.631439 
	C31.312231,149.182159 31.528883,142.562958 37.902584,137.620850 
	C45.520138,131.714264 54.671249,129.716675 63.799877,127.720253 
	C74.342964,125.414482 84.900742,123.099709 95.654541,122.091743 
	C99.389267,121.741684 100.642593,119.880920 101.615364,116.689705 
	C107.001312,99.020737 112.300026,81.306839 119.874329,64.407516 
	C124.316597,54.496197 129.768127,45.189278 136.928452,36.919971 
	C143.603165,29.211506 152.170746,26.221535 162.078308,25.606510 
	C176.940033,24.683952 191.074066,28.893370 205.481415,31.196230 
	C211.715302,32.192646 217.951797,33.187160 224.154205,34.357033 
	C225.958939,34.697441 227.446289,34.075535 228.996368,33.585632 
	C235.028976,31.679016 241.039902,29.753559 247.269867,28.510445 
	C261.751770,25.620760 272.445923,30.044439 279.693848,42.843849 
	C286.118164,54.188778 289.736420,66.757454 294.231842,78.918213 
	C298.958252,91.703773 304.240723,104.330414 307.110870,117.728516 
	C307.699310,120.475288 309.078949,121.394539 311.752258,121.927574 
	C325.929718,124.754547 340.062744,127.806633 354.197571,130.844070 
	C359.597260,132.004410 364.796783,133.775208 369.438690,136.861847 
	C377.580444,142.275726 378.906494,151.720062 372.051239,158.651932 
	C362.951202,167.853683 350.948212,170.878906 338.724823,173.097260 
	C334.643219,173.837997 330.500397,174.241226 325.491028,174.919937 
	C334.730591,199.979828 335.024139,224.810760 322.549469,248.394241 
	C309.639618,272.800385 287.051971,283.317047 261.057129,287.054657 
	C260.719543,289.713562 262.211090,290.463867 263.272400,291.404846 
	C274.380737,301.253967 278.393219,314.274109 279.218170,328.423920 
	C279.973755,341.383789 279.972809,354.387268 280.334229,367.370758 
	C280.528748,374.357452 282.887939,377.003967 289.737152,377.855560 
	C293.063568,378.269135 296.307465,378.993011 299.406952,380.231232 
	C302.435852,381.441284 305.141541,383.054321 305.307983,386.871765 
	C305.475403,390.712128 303.306915,393.175629 300.235077,394.828369 
	C296.660583,396.751587 292.727600,397.327240 288.653442,397.328308 
	C259.837799,397.335968 231.011673,396.393707 202.221695,396.658813 
	C175.078201,396.908783 147.929398,397.046631 120.318542,397.194275 
M187.145004,167.411484 
	C162.569504,166.548157 138.202698,163.061905 112.935204,161.045319 
	C116.125557,165.761581 113.450974,169.202438 111.869942,172.684875 
	C104.394188,189.151352 101.076706,206.275879 104.399734,224.198929 
	C108.513664,246.387726 123.302635,259.534729 143.271942,267.388458 
	C159.482651,273.763947 176.611298,276.277924 193.983582,276.814392 
	C218.298706,277.565277 242.505905,277.181366 266.276276,270.814148 
	C288.885559,264.757935 303.797455,251.201462 310.411346,228.419617 
	C316.384430,207.845215 312.994690,187.942795 307.506073,168.025940 
	C306.716309,165.160049 304.873230,164.722427 302.234772,164.831848 
	C288.941681,165.383240 275.673676,166.232620 262.404266,167.228012 
	C242.472122,168.723175 222.481537,168.415863 202.506973,168.348694 
	C197.683014,168.332474 192.840393,168.542908 187.145004,167.411484 
M120.597313,112.594032 
	C117.486946,114.901535 117.033096,118.287811 116.552643,121.911530 
	C119.411385,123.084419 122.191566,123.526405 124.973343,123.624161 
	C154.903610,124.675957 184.846909,125.424400 214.763596,126.768501 
	C230.694550,127.484261 246.640640,128.340775 262.490112,130.474289 
	C270.880859,131.603760 279.371124,132.020187 287.825745,132.629227 
	C289.700470,132.764297 292.578705,133.173096 292.437531,130.303894 
	C292.201813,125.513519 291.661957,120.467888 289.027649,116.414169 
	C287.191193,113.588211 283.210968,114.400162 280.157806,114.213493 
	C262.722473,113.147499 245.292542,112.018250 227.800552,112.116180 
	C192.333969,112.314766 156.866226,112.304489 120.597313,112.594032 
M276.360260,77.134224 
	C273.235077,69.969261 270.299408,62.714062 266.940918,55.660175 
	C261.705109,44.663368 258.159882,43.342106 246.906708,47.568813 
	C245.662720,48.036053 244.371994,48.436222 243.216919,49.073948 
	C231.556168,55.512032 219.857071,54.887043 207.839401,49.901608 
	C202.746002,47.788651 197.475189,45.703568 190.374313,45.386475 
	C193.816574,47.325012 195.991348,48.839603 198.379715,49.848637 
	C216.404770,57.463806 231.244308,68.628349 240.030426,86.678093 
	C241.548096,89.795929 244.183624,91.318161 247.574081,91.641785 
	C254.842636,92.335579 262.109650,93.046204 269.380402,93.716179 
	C273.269592,94.074554 277.136444,95.595558 281.844666,93.899857 
	C280.090759,88.472893 278.373840,83.160393 276.360260,77.134224 
M184.164520,344.500122 
	C184.158661,353.651215 184.156265,362.802307 184.145706,371.953400 
	C184.139053,377.712646 188.523880,376.804230 192.004791,376.998871 
	C195.084808,377.171112 198.002731,377.162018 197.955704,372.529419 
	C197.761444,353.396667 197.758713,334.261810 197.740402,315.127625 
	C197.737534,312.126953 196.564743,309.553528 194.905579,307.287781 
	C193.052612,304.757355 190.011612,303.253235 187.119934,303.685364 
	C184.096268,304.137177 185.298141,307.475281 185.036652,309.595825 
	C183.647156,320.863525 184.438110,332.196899 184.164520,344.500122 
M239.972519,372.167114 
	C239.966187,354.338806 239.973038,336.510498 239.947327,318.682220 
	C239.936432,311.128906 237.943298,308.777802 230.022888,306.870270 
	C228.634125,308.446259 228.382889,310.424713 228.379807,312.408264 
	C228.349060,332.235901 228.406464,352.063843 228.308823,371.891083 
	C228.290726,375.566528 230.399719,376.493134 233.337769,376.605194 
	C236.161804,376.712891 239.744247,377.965454 239.972519,372.167114 
z"/>
<path fill="#000000" opacity="1.000000" stroke="none" 
	d="
M188.006592,200.312286 
	C195.216599,216.986557 183.534241,240.966736 162.617493,242.113907 
	C144.486557,243.108307 128.549927,223.748245 132.295685,205.311081 
	C133.129196,201.208435 134.493912,197.299408 136.575211,193.658417 
	C143.809311,181.003296 156.433426,176.640915 169.800461,182.416855 
	C177.970688,185.947250 184.749542,191.104828 188.006592,200.312286 
z"/>
<path fill="#000000" opacity="1.000000" stroke="none" 
	d="
M239.874115,205.395844 
	C241.912231,193.806885 247.251785,185.470612 258.803375,182.279465 
	C270.190155,179.133850 279.788208,182.787018 286.946106,191.372040 
	C295.226227,201.303055 294.674072,212.896240 289.980438,224.318634 
	C287.233124,231.004410 283.511749,237.096909 276.225372,239.966965 
	C266.328094,243.865433 255.337204,240.890579 247.943649,232.189880 
	C241.472519,224.574677 238.661453,215.818420 239.874115,205.395844 
z"/>
</svg>